
<svg width="26px" height="26px" viewBox="0 0 26 26" version="1.1" xmlns="http://www.w3.org/2000/svg" xmlns:xlink="http://www.w3.org/1999/xlink">
    <!-- Generator: Sketch 43.1 (39012) - http://www.bohemiancoding.com/sketch -->
    <desc>Created with Sketch.</desc>
    <defs></defs>
    <g id="MangoV9" stroke="none" stroke-width="1" fill="none" fill-rule="evenodd">
        <g id="3" transform="translate(-1013.000000, -944.000000)" fill-rule="nonzero" fill="#000000">
            <g id="facebook-app-logo" transform="translate(1013.000000, 944.000000)">
                <path d="M24.4561967,0.000426229508 L1.42872131,0.000426229508 C0.640196721,0.000426229508 0,0.639344262 0,1.42914754 L0,24.456623 C0,25.2464262 0.640196721,25.8861967 1.42872131,25.8861967 L13.8260328,25.8861967 L13.8260328,15.8617049 L10.4528525,15.8617049 L10.4528525,11.954459 L13.8260328,11.954459 L13.8260328,9.07314754 C13.8260328,5.73022951 15.8672459,3.90895082 18.85,3.90895082 C20.28,3.90895082 21.5062623,4.01593443 21.8638689,4.06239344 L21.8638689,7.55662295 L19.7949508,7.55747541 C18.1731475,7.55747541 17.8602951,8.32852459 17.8602951,9.45931148 L17.8602951,11.9531803 L21.7296066,11.9531803 L21.2236721,15.86 L17.8598689,15.86 L17.8598689,25.884918 L24.4557705,25.884918 C25.2451475,25.884918 25.8857705,25.2442951 25.8857705,24.456623 L25.8857705,1.42829508 C25.8853443,0.639344262 25.2455738,0.000426229508 24.4561967,0.000426229508 Z" id="Shape"></path>
            </g>
        </g>
    </g>
</svg>