
<svg width="27px" height="27px" viewBox="0 0 27 27" version="1.1" xmlns="http://www.w3.org/2000/svg" xmlns:xlink="http://www.w3.org/1999/xlink">
    <!-- Generator: Sketch 43.1 (39012) - http://www.bohemiancoding.com/sketch -->
    <desc>Created with Sketch.</desc>
    <defs></defs>
    <g id="MangoV9" stroke="none" stroke-width="1" fill="none" fill-rule="evenodd">
        <g id="3" transform="translate(-918.000000, -945.000000)" fill-rule="nonzero" fill="#000000">
            <g id="ig" transform="translate(918.000000, 945.000000)">
                <path d="M13.5,2.433375 C17.1045,2.433375 17.532,2.446875 18.95625,2.512125 C22.61475,2.678625 24.323625,4.4145 24.490125,8.046 C24.555375,9.469125 24.56775,9.896625 24.56775,13.501125 C24.56775,17.10675 24.55425,17.533125 24.490125,18.95625 C24.3225,22.584375 22.618125,24.323625 18.95625,24.490125 C17.532,24.555375 17.10675,24.568875 13.5,24.568875 C9.8955,24.568875 9.468,24.555375 8.044875,24.490125 C4.377375,24.3225 2.6775,22.57875 2.511,18.955125 C2.44575,17.532 2.43225,17.105625 2.43225,13.5 C2.43225,9.8955 2.446875,9.469125 2.511,8.044875 C2.678625,4.4145 4.383,2.6775 8.044875,2.511 C9.469125,2.446875 9.8955,2.433375 13.5,2.433375 L13.5,2.433375 Z M13.5,5.46437895e-16 C9.833625,5.46437895e-16 9.374625,0.01575 7.934625,0.081 C3.031875,0.306 0.307125,3.02625 0.082125,7.9335 C0.01575,9.374625 0,9.833625 0,13.5 C0,17.166375 0.01575,17.6265 0.081,19.0665 C0.306,23.96925 3.02625,26.694 7.9335,26.919 C9.374625,26.98425 9.833625,27 13.5,27 C17.166375,27 17.6265,26.98425 19.0665,26.919 C23.96475,26.694 26.69625,23.97375 26.917875,19.0665 C26.98425,17.6265 27,17.166375 27,13.5 C27,9.833625 26.98425,9.374625 26.919,7.934625 C26.6985,3.036375 23.974875,0.307125 19.067625,0.082125 C17.6265,0.01575 17.166375,0 13.5,0 L13.5,5.46437895e-16 Z M13.5,6.56775 C9.671625,6.56775 6.56775,9.671625 6.56775,13.5 C6.56775,17.328375 9.671625,20.433375 13.5,20.433375 C17.328375,20.433375 20.43225,17.3295 20.43225,13.5 C20.43225,9.671625 17.328375,6.56775 13.5,6.56775 Z M13.5,18 C11.014875,18 9,15.98625 9,13.5 C9,11.014875 11.014875,9 13.5,9 C15.985125,9 18,11.014875 18,13.5 C18,15.98625 15.985125,18 13.5,18 Z M20.70675,4.674375 C19.81125,4.674375 19.085625,5.4 19.085625,6.294375 C19.085625,7.18875 19.81125,7.914375 20.70675,7.914375 C21.601125,7.914375 22.325625,7.18875 22.325625,6.294375 C22.325625,5.4 21.601125,4.674375 20.70675,4.674375 Z" id="Shape"></path>
            </g>
        </g>
    </g>
</svg>