
<svg width="31px" height="25px" viewBox="0 0 31 25" version="1.1" xmlns="http://www.w3.org/2000/svg" xmlns:xlink="http://www.w3.org/1999/xlink">
    <!-- Generator: Sketch 43.1 (39012) - http://www.bohemiancoding.com/sketch -->
    <desc>Created with Sketch.</desc>
    <defs></defs>
    <g id="MangoV9" stroke="none" stroke-width="1" fill="none" fill-rule="evenodd">
        <g id="3" transform="translate(-963.000000, -946.000000)" fill-rule="nonzero" fill="#000000">
            <g id="Group" transform="translate(956.000000, 936.000000)">
                <g id="Twitter_Social_Icon_Circle_Color" transform="translate(7.000000, 10.000000)">
                    <g id="Logo__x2014__FIXED">
                        <path d="M9.64659686,25 C21.2565445,25 27.604712,15.3795812 27.604712,7.04188482 C27.604712,6.76701571 27.604712,6.4921466 27.591623,6.23036649 C28.8219895,5.34031414 29.895288,4.22774869 30.7460733,2.95811518 C29.6204188,3.45549738 28.4031414,3.79581152 27.1204188,3.95287958 C28.4293194,3.16753927 29.4240838,1.93717277 29.895288,0.458115183 C28.6780105,1.17801047 27.3298429,1.70157068 25.8900524,1.9895288 C24.7382199,0.759162304 23.1020942,0 21.2827225,0 C17.8010471,0 14.973822,2.82722513 14.973822,6.30890052 C14.973822,6.80628272 15.026178,7.29057592 15.1439791,7.7486911 C9.89528796,7.48691099 5.2486911,4.97382199 2.13350785,1.15183246 C1.59685864,2.08115183 1.28272251,3.16753927 1.28272251,4.31937173 C1.28272251,6.5052356 2.39528796,8.44240838 4.09685864,9.56806283 C3.06282723,9.54188482 2.09424084,9.2539267 1.2434555,8.78272251 L1.2434555,8.86125654 C1.2434555,11.9240838 3.41623037,14.4633508 6.30890052,15.052356 C5.78534031,15.1963351 5.22251309,15.2748691 4.64659686,15.2748691 C4.2408377,15.2748691 3.84816754,15.2356021 3.45549738,15.1570681 C4.2539267,17.6701571 6.58376963,19.4895288 9.34554974,19.5418848 C7.18586387,21.2303665 4.46335079,22.2382199 1.5052356,22.2382199 C0.994764398,22.2382199 0.497382199,22.2120419 0,22.1465969 C2.7617801,23.9528796 6.08638743,25 9.64659686,25" id="Shape"></path>
                    </g>
                </g>
            </g>
        </g>
    </g>
</svg>